<svg xmlns="http://www.w3.org/2000/svg" viewBox="0 0 24 24">
<path class="a" d="M4.061,17.774a.868.868,0,1,1-.868.868.868.868,0,0,1,.868-.868m0-1a1.868,1.868,0,1,0,1.868,1.868,1.868,1.868,0,0,0-1.868-1.868Z"></path>
<path class="a" d="M19.37,11.271a.868.868,0,1,1-.868.868.868.868,0,0,1,.868-.868m0-1a1.868,1.868,0,1,0,1.868,1.868,1.868,1.868,0,0,0-1.868-1.868Z"></path>
<path class="a" d="M17.122,13.9l-2.437,3.59H7l3.665-5.4L7,6.69h7.684l2.474,3.645a2.865,2.865,0,0,1,1.492-.962L15.625,4.915H6.7A2.843,2.843,0,0,1,5.6,7.792l2.916,4.3L5.678,16.276a2.869,2.869,0,0,1,1.251,2.366,2.812,2.812,0,0,1-.072.62h8.768l2.97-4.375A2.856,2.856,0,0,1,17.122,13.9Z"></path>
<path class="a" d="M3.9,4.634a.868.868,0,1,1-.868.868A.868.868,0,0,1,3.9,4.634m0-1A1.868,1.868,0,1,0,5.764,5.5,1.868,1.868,0,0,0,3.9,3.634Z"></path>
</svg>