<svg xmlns="http://www.w3.org/2000/svg" viewBox="0 0 24 24">
<path d="M20.773,3.149A.641.641,0,0,0,20.084,3L3.373,9.473a.647.647,0,0,0-.387.783.66.66,0,0,0,.362.41l4.221,1.982L3.911,16.293a.646.646,0,0,0,0,.911L6.652,19.97a.642.642,0,0,0,.455.19h0a.642.642,0,0,0,.455-.188l3.656-3.643,1.961,4.256a.644.644,0,0,0,.585.375h.019a.642.642,0,0,0,.581-.409L20.917,3.84A.645.645,0,0,0,20.773,3.149ZM13.68,17.367l-.825-1.791-1.079-2.342-1.827,1.82L7.114,17.879,6,16.755l2.841-2.832,1.819-1.812L8.334,11.019l-1.793-.842,11.74-4.546Z"></path>
</svg>